<?xml version="1.0" standalone="no"?>
<!DOCTYPE svg PUBLIC "-//W3C//DTD SVG 20010904//EN"
 "http://www.w3.org/TR/2001/REC-SVG-20010904/DTD/svg10.dtd">
<svg version="1.0" xmlns="http://www.w3.org/2000/svg"
 width="874.000000pt" height="874.000000pt" viewBox="0 0 874.000000 874.000000"
 preserveAspectRatio="xMidYMid meet">
<metadata>
Created by potrace 1.14, written by Peter Selinger 2001-2017
</metadata>
<g transform="translate(0.000000,874.000000) scale(0.100000,-0.100000)"
fill="#000000" stroke="none">
<path d="M3597 6974 c-1 -1 -43 -4 -93 -8 -77 -5 -157 -17 -269 -41 -109 -24
-298 -96 -415 -158 -146 -78 -339 -221 -428 -317 -13 -14 -43 -45 -66 -70
-296 -316 -476 -790 -469 -1239 l1 -93 -26 6 c-565 125 -922 83 -1276 -152
-92 -61 -268 -237 -329 -329 -114 -173 -188 -366 -214 -563 -11 -82 -5 -284
10 -372 30 -169 102 -348 200 -495 87 -131 279 -311 407 -382 73 -40 163 -81
228 -105 69 -24 87 -30 150 -41 15 -3 36 -7 48 -10 11 -2 43 -8 70 -11 45 -6
3294 -12 3294 -6 0 2 -506 1268 -892 2232 -94 234 -179 446 -189 472 l-18 47
238 -177 c132 -97 449 -332 706 -522 257 -190 576 -426 710 -525 134 -99 359
-265 500 -370 142 -104 358 -264 480 -355 201 -149 315 -232 670 -495 61 -45
173 -128 250 -185 76 -57 149 -108 160 -114 30 -16 627 -13 725 3 163 27 374
115 499 209 571 430 636 1244 138 1746 -124 124 -250 206 -413 269 -75 29 -80
30 -189 54 -105 23 -448 20 -510 -3 -10 -4 -12 18 -11 103 2 126 -7 206 -36
323 -84 339 -320 632 -634 789 -78 38 -206 86 -261 96 -15 2 -39 7 -53 10
-113 26 -325 26 -465 0 -149 -28 -300 -92 -445 -189 -46 -31 -84 -55 -85 -54
-1 2 -25 46 -54 99 -102 186 -290 408 -446 527 -153 116 -267 185 -405 243
-41 18 -89 38 -106 45 -31 13 -239 69 -292 79 -72 12 -164 22 -227 25 -137 5
-166 6 -168 4z"/>
<path d="M3600 5025 c30 -38 68 -88 85 -110 16 -22 32 -42 35 -45 3 -3 21 -25
40 -50 19 -25 38 -49 43 -55 32 -41 223 -286 241 -310 13 -16 136 -174 273
-350 137 -176 272 -349 299 -385 28 -36 166 -213 306 -393 141 -180 263 -338
270 -349 14 -22 16 -22 588 -25 l574 -4 -81 63 c-45 35 -130 100 -190 145
-184 141 -527 403 -543 416 -8 7 -71 55 -140 106 -69 52 -127 97 -130 100 -3
4 -88 69 -190 146 -102 77 -192 145 -200 152 -17 13 -196 151 -370 283 -61 47
-182 139 -268 205 -87 67 -213 163 -282 215 -69 52 -127 97 -130 100 -3 3 -32
25 -65 49 -33 25 -62 47 -65 50 -3 4 -21 18 -40 32 -19 14 -53 38 -75 55 l-40
29 55 -70z"/>
<path d="M3503 5040 c8 -21 105 -247 127 -295 10 -22 30 -69 45 -105 15 -36
35 -83 45 -105 10 -22 64 -148 120 -280 56 -132 108 -253 115 -270 8 -16 77
-178 155 -360 77 -181 147 -343 155 -360 7 -16 34 -79 59 -140 26 -60 51 -119
56 -130 5 -11 18 -40 28 -65 93 -215 177 -410 188 -435 7 -16 41 -95 74 -175
34 -80 70 -163 80 -185 10 -22 30 -69 45 -105 15 -36 37 -87 49 -115 12 -27
27 -61 33 -75 8 -19 12 -21 16 -10 5 13 173 691 247 997 l23 91 -49 64 c-26
34 -75 97 -109 139 -33 42 -85 109 -115 149 -30 40 -60 77 -65 84 -10 10 -641
821 -764 980 -30 39 -106 136 -168 216 -62 80 -146 188 -187 240 -153 195
-209 265 -203 250z"/>
<path d="M5224 2876 c-6 -19 -66 -260 -70 -286 -3 -14 -8 -34 -11 -45 -4 -11
-8 -24 -9 -30 -1 -5 -25 -104 -54 -220 -28 -115 -54 -219 -56 -230 -2 -11 -12
-50 -22 -87 -11 -37 -16 -65 -12 -63 4 3 30 37 57 77 27 40 107 159 178 263
71 105 152 223 180 264 l51 74 260 94 c142 52 268 98 279 102 21 9 146 55 155
57 7 1 41 14 65 24 25 11 24 11 -543 14 -315 2 -445 0 -448 -8z"/>
</g>
</svg>
